{"title":"The Odd Life of Timothy Green 2012 BRRip XviD MP3-RARBG","uid":12590090,"size":1404670654,"categoryP":"video","categoryS":"movies","magnet":"?xt=urn:btih:28eb0d3f5f9e36594f557253bab15a162802f5c9&amp;dn=The+Odd+Life+of+Timothy+Green+2012+BRRip+XviD+MP3-RARBG&amp;tr=udp%3A%2F%2Ftracker.leechers-paradise.org%3A6969&amp;tr=udp%3A%2F%2Fzer0day.ch%3A1337&amp;tr=udp%3A%2F%2Fopen.demonii.com%3A1337&amp;tr=udp%3A%2F%2Ftracker.coppersurfer.tk%3A6969&amp;tr=udp%3A%2F%2Fexodus.desync.com%3A6969","seeders":0,"leechers":0,"uploader":"TheRival","files":6,"time":1445088409,"description":"Screens: \nhttp://extraimago.com/image/9Ah \nhttp://extraimago.com/image/9Ab \nhttp://extraimago.com/image/9A3 \nhttp://extraimago.com/image/9A9 \nhttp://extraimago.com/image/9AM\r\n\r\nVideo\r\nID                                       : 0\r\nFormat                                   : MPEG-4 Visual\r\nFormat profile                           :   \r\nFormat settings, BVOP                    : No\r\nFormat settings, QPel                    : No\r\nFormat settings, GMC                     : No warppoints\r\nFormat settings, Matrix                  : Default (H.263)\r\nCodec ID                                 : XVID\r\nCodec ID/Hint                            : XviD\r\nDuration                                 : 1h 44mn\r\nBit rate                                 : 1 581 Kbps\r\nWidth                                    : 720 pixels\r\nHeight                                   : 390 pixels\r\nDisplay aspect ratio                     : 1.85:1\r\nFrame rate                               : 23.976 fps\r\nColor space                              : YUV\r\nChroma subsampling                       : 4:2:0\r\nBit depth                                : 8 bits\r\nScan type                                : Progressive\r\nCompression mode                         : Lossy\r\nBits/(Pixel*Frame)                       : 0.235\r\nStream size                              : 1.16 GiB (88%)\r\nTitle                                    : RARBG.COM - The.Odd.Life.of.Timothy.Green.2012.BRRip.XviD.MP3-RARBG\r\nWriting library                          : Lavc56.60.100\r\n\r\nAudio\r\nID                                       : 1\r\nFormat                                   : MPEG Audio\r\nFormat version                           : Version 1\r\nFormat profile                           : Layer 3\r\nMode                                     : Joint stereo\r\nCodec ID                                 : 55\r\nCodec ID/Hint                            : MP3\r\nDuration                                 : 1h 44mn\r\nBit rate mode                            : Constant\r\nBit rate                                 : 192 Kbps\r\nChannel(s)                               : 2 channels\r\nSampling rate                            : 48.0 KHz\r\nCompression mode                         : Lossy\r\nStream size                              : 144 MiB (11%)\r\nAlignment                                : Aligned on interleaves\r\nInterleave, duration                     : 24 ms (0.58 video frame)\r\nInterleave, preload duration             : 24 ms","torrent":{"xt":"urn:btih:28eb0d3f5f9e36594f557253bab15a162802f5c9","amp;dn":"The+Odd+Life+of+Timothy+Green+2012+BRRip+XviD+MP3-RARBG","amp;tr":["udp%3A%2F%2Ftracker.leechers-paradise.org%3A6969","udp%3A%2F%2Fzer0day.ch%3A1337","udp%3A%2F%2Fopen.demonii.com%3A1337","udp%3A%2F%2Ftracker.coppersurfer.tk%3A6969","udp%3A%2F%2Fexodus.desync.com%3A6969"],"infoHash":"28eb0d3f5f9e36594f557253bab15a162802f5c9","infoHashBuffer":{"type":"Buffer","data":[40,235,13,63,95,158,54,89,79,85,114,83,186,177,90,22,40,2,245,201]},"announce":[],"urlList":[]}}